<?xml version="1.0" standalone="no"?>
<!DOCTYPE svg PUBLIC "-//W3C//DTD SVG 20010904//EN"
 "http://www.w3.org/TR/2001/REC-SVG-20010904/DTD/svg10.dtd">
<svg version="1.0" xmlns="http://www.w3.org/2000/svg"
 width="180.000000pt" height="180.000000pt" viewBox="0 0 180.000000 180.000000"
 preserveAspectRatio="xMidYMid meet">
<metadata>
Created by potrace 1.14, written by Peter Selinger 2001-2017
</metadata>
<g transform="translate(0.000000,180.000000) scale(0.100000,-0.100000)"
fill="#000000" stroke="none">
<path d="M775 1496 c-143 -27 -270 -94 -375 -196 -214 -210 -271 -540 -141
-813 30 -62 109 -176 123 -177 4 0 10 17 14 38 9 51 47 115 78 132 34 18 33
28 -8 88 -66 98 -56 228 29 362 19 30 25 53 25 94 l0 55 162 -55 c91 -30 180
-54 203 -54 22 0 108 23 190 50 82 28 153 50 157 50 4 0 8 -20 8 -45 0 -35 9
-57 39 -105 51 -79 75 -150 74 -225 0 -61 -24 -127 -57 -154 -24 -20 -19 -35
21 -62 42 -27 72 -81 80 -139 3 -22 8 -40 10 -40 9 0 44 45 92 116 133 199
148 477 36 700 -91 180 -263 318 -460 369 -86 22 -217 27 -300 11z m392 -243
c128 -43 232 -82 230 -88 -5 -13 -463 -164 -502 -164 -38 -1 -497 151 -502
166 -6 17 432 161 492 162 37 1 110 -19 282 -76z"/>
<path d="M603 861 c9 -25 7 -33 -19 -66 -25 -34 -29 -47 -29 -107 0 -64 2 -69
36 -104 59 -59 147 -65 212 -14 31 24 37 25 37 4 0 -28 43 -95 60 -92 8 2 27
26 41 55 l26 51 29 -19 c89 -59 194 -36 240 53 28 53 13 138 -34 191 -13 15
-14 24 -5 48 l11 29 -47 0 c-138 0 -241 -76 -241 -180 0 -35 -3 -40 -23 -40
-20 0 -23 4 -19 29 15 102 -96 191 -239 191 l-47 0 11 -29z m87 -50 c-17 -33
-12 -89 10 -111 40 -40 106 -15 125 50 l8 25 9 -25 c39 -105 -110 -217 -197
-148 -77 60 -62 165 30 216 27 15 27 15 15 -7z m490 -44 c49 -80 8 -174 -80
-184 -36 -4 -52 0 -80 19 -48 32 -74 88 -65 136 7 36 8 36 17 12 37 -97 148
-90 148 9 0 22 -4 43 -10 46 -5 3 -10 11 -10 16 0 19 61 -22 80 -54z"/>
</g>
</svg>
